<svg width="12" height="12" viewBox="0 0 12 12" fill="none" xmlns="http://www.w3.org/2000/svg">
<path d="M6.00006 3.19611C4.44831 3.19611 3.19596 4.44845 3.19596 6.00021C3.19596 7.55197 4.44831 8.80431 6.00006 8.80431C7.55182 8.80431 8.80417 7.55197 8.80417 6.00021C8.80417 4.44845 7.55182 3.19611 6.00006 3.19611ZM6.00006 7.82267C4.99655 7.82267 4.1776 7.00373 4.1776 6.00021C4.1776 4.9967 4.99655 4.17775 6.00006 4.17775C7.00358 4.17775 7.82253 4.9967 7.82253 6.00021C7.82253 7.00373 7.00358 7.82267 6.00006 7.82267ZM8.91901 2.42775C8.55671 2.42775 8.26413 2.72033 8.26413 3.08263C8.26413 3.44494 8.55671 3.73752 8.91901 3.73752C9.28131 3.73752 9.57389 3.44631 9.57389 3.08263C9.574 2.9966 9.55713 2.9114 9.52426 2.83189C9.49139 2.75239 9.44316 2.68015 9.38232 2.61932C9.32149 2.55849 9.24925 2.51025 9.16975 2.47738C9.09025 2.44451 9.00504 2.42764 8.91901 2.42775ZM11.4661 6.00021C11.4661 5.24552 11.4729 4.49767 11.4305 3.74435C11.3882 2.86935 11.1885 2.09279 10.5487 1.45295C9.90749 0.811735 9.13229 0.613493 8.25729 0.57111C7.5026 0.528727 6.75475 0.535563 6.00143 0.535563C5.24674 0.535563 4.49889 0.528727 3.74557 0.57111C2.87057 0.613493 2.09401 0.813102 1.45417 1.45295C0.812955 2.09416 0.614713 2.86935 0.57233 3.74435C0.529948 4.49904 0.536784 5.24689 0.536784 6.00021C0.536784 6.75353 0.529948 7.50275 0.57233 8.25607C0.614713 9.13107 0.814323 9.90763 1.45417 10.5475C2.09538 11.1887 2.87057 11.3869 3.74557 11.4293C4.50026 11.4717 5.24811 11.4649 6.00143 11.4649C6.75612 11.4649 7.50397 11.4717 8.25729 11.4293C9.13229 11.3869 9.90885 11.1873 10.5487 10.5475C11.1899 9.90627 11.3882 9.13107 11.4305 8.25607C11.4743 7.50275 11.4661 6.7549 11.4661 6.00021ZM10.263 9.22404C10.1631 9.47287 10.0428 9.6588 9.85006 9.85021C9.65729 10.043 9.47272 10.1633 9.22389 10.2631C8.50475 10.5488 6.79713 10.4846 6.00006 10.4846C5.20299 10.4846 3.49401 10.5488 2.77487 10.2645C2.52604 10.1647 2.3401 10.0444 2.1487 9.85158C1.95592 9.6588 1.83561 9.47423 1.73581 9.22541C1.45143 8.5049 1.51569 6.79728 1.51569 6.00021C1.51569 5.20314 1.45143 3.49416 1.73581 2.77502C1.83561 2.52619 1.95592 2.34025 2.1487 2.14884C2.34147 1.95744 2.52604 1.83576 2.77487 1.73595C3.49401 1.45158 5.20299 1.51584 6.00006 1.51584C6.79713 1.51584 8.50612 1.45158 9.22526 1.73595C9.47409 1.83576 9.66003 1.95607 9.85143 2.14884C10.0442 2.34162 10.1645 2.52619 10.2643 2.77502C10.5487 3.49416 10.4844 5.20314 10.4844 6.00021C10.4844 6.79728 10.5487 8.5049 10.263 9.22404Z" fill="#34366D"/>
</svg>
