<svg width="11" height="11" viewBox="0 0 11 11" fill="none" xmlns="http://www.w3.org/2000/svg">
<path d="M2.7592 1.70839C2.75905 1.9957 2.64478 2.2712 2.44151 2.47426C2.23825 2.67732 1.96264 2.79132 1.67532 2.79118C1.388 2.79103 1.11251 2.67676 0.909447 2.47349C0.706384 2.27023 0.592386 1.99462 0.592529 1.7073C0.592673 1.41999 0.706947 1.14449 0.910213 0.94143C1.11348 0.738367 1.38909 0.624368 1.6764 0.624512C1.96372 0.624656 2.23922 0.73893 2.44228 0.942196C2.64534 1.14546 2.75934 1.42107 2.7592 1.70839ZM2.7917 3.59339H0.625029V10.3751H2.7917V3.59339ZM6.21503 3.59339H4.0592V10.3751H6.19336V6.8163C6.19336 4.8338 8.77711 4.64964 8.77711 6.8163V10.3751H10.9167V6.07964C10.9167 2.73755 7.09253 2.86214 6.19336 4.50339L6.21503 3.59339Z" fill="#34366D"/>
</svg>
