<svg width="76" height="79" viewBox="0 0 76 79" fill="none" xmlns="http://www.w3.org/2000/svg">
<path d="M37.2893 0.690426C34.7465 1.34612 31.1567 3.9093 29.6609 6.17443C28.0904 8.55878 28.3148 12.1949 30.1845 14.0428C31.0071 14.8773 31.4558 15.8907 31.1567 16.2483C30.8575 16.7252 30.9323 16.7848 31.4558 16.5464C32.4281 16.0695 32.5777 17.0828 31.755 18.6923C31.3063 19.646 30.9323 19.5268 29.1374 17.977C27.2677 16.4271 26.4451 16.1887 23.1544 16.1887C17.4705 16.1887 12.9833 18.8711 12.9085 22.2092C12.9085 23.1033 12.385 24.7724 11.7119 26.0242C10.3657 28.7066 10.8144 30.614 13.3572 33.058C14.3294 34.0117 15.1521 35.1443 15.1521 35.5616C15.1521 36.0384 15.5261 36.5749 15.9 36.7537C17.2462 37.4094 15.9 33.9521 13.9555 31.6274C12.1606 29.5411 11.7119 27.3356 12.6093 25.4281C13.2824 23.9975 16.1244 27.8124 15.5261 29.3623C15.2269 30.018 15.3765 30.4948 15.8252 30.4948C16.5731 30.4948 17.0966 26.8587 16.6479 25.4281C15.6008 22.4476 15.8252 21.0766 17.7697 19.8845C20.3125 18.275 24.4258 17.6193 26.819 18.4538C28.0904 18.9307 28.6887 19.7652 29.0626 21.5535C29.3618 22.8649 29.8853 24.1167 30.1845 24.2955C31.2315 24.7724 30.9323 27.872 29.8105 28.6469C29.0626 29.1834 28.3148 29.1834 26.8938 28.6469C25.5476 28.1701 24.6502 28.1701 23.6779 28.6469C22.4813 29.1834 22.5561 29.243 24.7249 29.3026C27.0434 29.3026 27.9408 30.1372 29.7357 33.8925C29.8105 33.9521 31.4558 33.5349 33.4751 32.9984C35.8683 32.3427 37.5137 31.389 38.112 30.4948C38.9346 29.243 40.0564 28.8854 42.5992 29.243C42.8236 29.243 42.3001 29.9583 41.3278 30.7929C39.9069 31.985 39.8321 32.2831 40.8043 32.2831C42.3001 32.2831 43.721 30.316 43.1227 29.0642C42.7488 28.2893 41.5522 28.1701 38.1867 28.6469C37.8876 28.6469 37.5137 29.1834 37.2145 29.7795C36.9154 30.6736 32.6525 32.2831 30.6332 32.2831C29.4366 32.2831 29.5862 30.316 30.8575 29.3026C32.6525 27.872 32.802 25.3089 31.2315 23.5206C30.1097 22.2092 30.4088 20.3613 31.755 20.3613C32.1289 20.3613 32.6525 20.8978 32.8768 21.5535C33.1012 22.2092 33.7743 22.7457 34.2978 22.7457C34.8961 22.7457 35.3448 22.9841 35.3448 23.3418C35.3448 23.6398 35.7935 23.9379 36.3918 23.9379C36.9901 23.9379 37.5884 24.3551 37.8876 24.832C38.4111 25.9646 40.58 25.9646 42.674 24.7724C44.3193 23.8782 44.3193 23.9379 44.4689 26.1434C44.5437 27.3952 44.5437 29.1834 44.4689 30.1968L44.3941 31.985L45.4412 30.1968C46.0395 29.1834 46.4882 26.9183 46.563 25.13V21.9112L49.6293 24.2359C51.2746 25.5473 53.6678 27.9316 55.014 29.6007C57.1081 32.1639 57.4072 33.058 57.3324 36.4557C57.3324 38.8401 56.7341 41.6417 55.6871 43.8472C54.7896 45.8143 54.1913 47.4833 54.3409 47.6025C55.014 48.139 59.5761 39.3169 60.2491 36.098C61.8945 28.4085 58.3794 24.1763 44.6933 17.6789C39.8321 15.3542 34.7465 12.6718 33.4003 11.6584C31.0819 9.9894 30.9323 9.63174 31.6054 7.78387C32.5029 5.2803 35.27 3.31321 38.9346 2.47869C45.8151 1.04808 52.9199 5.22069 54.7896 11.7777C55.3132 13.6851 55.2384 13.8044 53.3687 13.8044C52.3216 13.8044 49.3301 13.2679 46.7126 12.6718C44.1698 12.0161 42.2253 11.7777 42.5244 12.0757C42.7488 12.3737 43.1975 12.6122 43.5715 12.6122C44.0202 12.6122 47.3109 13.6255 51.0502 14.9369L57.7811 17.2617V14.9965C57.7811 9.09526 53.8174 3.79008 47.7596 1.52495C43.7958 0.034729 40.9539 -0.144096 37.2893 0.690426ZM41.5522 19.1692L45.9647 21.6727L43.2723 23.1033C41.8513 23.8782 40.2808 24.5339 39.9069 24.5339C38.7103 24.5339 36.1675 22.3284 36.691 21.7919C36.9901 21.5535 36.6162 21.5535 35.9431 21.7323C35.0457 21.9708 34.5969 21.7919 34.5969 21.3151C34.5969 20.8382 34.0734 20.3613 33.4751 20.1229C32.5777 19.8845 32.5029 19.4672 33.1012 18.2154C33.7743 16.8444 33.5499 16.2483 31.9794 14.4004C29.0626 11.0624 29.7357 10.8835 33.6995 13.9236C35.644 15.4138 39.159 17.7385 41.5522 19.1692Z" fill="#F5888E"/>
<path d="M39.6073 13.3871C39.383 13.8639 41.3275 14.9965 44.7677 16.4271C57.1077 21.6727 63.0159 27.3355 62.0437 33.058L61.5949 35.5615L62.642 33.4752C63.1655 32.3426 63.689 29.9583 63.689 28.17C63.8386 22.0899 60.0244 18.9307 47.1609 14.7581C39.7569 12.3141 40.1309 12.3737 39.6073 13.3871Z" fill="#F5888E"/>
<path d="M18.2188 30.4947C18.2935 33.8924 18.4431 34.1904 19.3406 33.1771C20.6867 31.7465 20.612 29.3025 19.2658 27.8719C18.2935 26.8586 18.2188 27.097 18.2188 30.4947Z" fill="#F5888E"/>
<path d="M44.9916 32.4624C43.5706 33.1777 41.2522 35.0852 39.8312 36.635C37.6624 39.0194 36.5405 39.6155 33.1003 40.3904C30.8567 40.9269 28.6878 41.6422 28.2391 41.9402C27.7156 42.3575 28.0147 42.4171 28.987 42.2383C32.3524 41.5229 35.3439 41.1653 35.3439 41.4633C35.3439 41.9402 30.7819 47.7819 30.408 47.7819C30.034 47.7819 21.5082 38.6617 20.4612 37.1715C20.0872 36.635 19.5637 36.337 19.3394 36.5158C19.115 36.6946 21.583 40.0923 24.7989 44.0861L30.7071 51.3584L35.2692 45.0995C40.6539 37.708 44.3185 34.2507 48.2822 32.8797C50.4511 32.1048 50.825 31.7471 49.9276 31.4491C48.0579 30.9126 47.7587 30.9722 44.9916 32.4624Z" fill="#F5888E"/>
<path d="M37.14 34.1312C35.4199 35.6811 32.1292 37.0521 30.2595 37.0521C29.5116 37.0521 27.4176 36.2175 25.7722 35.2638C21.9581 33.0583 21.6589 33.8332 25.3235 36.3964C27.4176 37.8866 28.5394 38.2442 30.8578 38.125C32.4283 38.0654 34.2233 38.3634 34.8963 38.7807C35.6442 39.2576 36.0929 39.3172 36.0929 38.9595C36.0929 38.6019 35.719 38.125 35.2703 37.8866C34.7468 37.6481 35.4199 36.754 36.9156 35.5022C38.2618 34.3697 39.1592 33.3563 38.9349 33.1775C38.7853 32.9987 37.9626 33.4159 37.14 34.1312Z" fill="#F5888E"/>
<path d="M52.9947 42.2972C51.7981 45.3373 49.1805 49.4503 44.9924 54.7554C44.1698 55.8284 43.4967 57.7359 43.4219 59.0473C43.4219 61.4912 45.142 64.4717 46.563 64.4717C47.0117 64.4717 46.7873 63.816 46.1142 62.9815C44.3941 60.8355 45.2168 58.332 49.9284 50.9405C53.4434 45.5161 55.6871 39.9129 54.64 39.1379C54.4905 38.9591 53.7426 40.3897 52.9947 42.2972Z" fill="#F5888E"/>
<path d="M16.6475 39.853C16.6475 40.2702 17.4701 42.6546 18.5172 45.2177C20.5364 50.2845 23.9019 55.1128 26.2203 56.0666C27.5665 56.603 27.716 57.1991 27.4169 60.418C27.2673 62.5043 27.3421 63.6369 27.5665 62.9812C27.7908 62.3255 28.3144 60.8353 28.6883 59.6431C29.2866 57.7356 29.5857 57.4972 31.3059 57.7952C32.9512 58.0336 33.9982 57.4376 38.2611 53.9206C40.9535 51.5959 44.1694 48.3174 45.2912 46.5291L47.3852 43.3103L44.9172 45.6946C39.7569 50.7018 34.4469 54.8744 32.2781 55.5897C30.3336 56.1858 29.7353 56.1262 28.0152 55.1128C24.4254 52.9669 21.733 49.6884 19.1902 44.3832C17.8441 41.522 16.7222 39.4357 16.6475 39.853Z" fill="#F5888E"/>
<path d="M0.194336 69.2409C0.194336 69.539 1.24136 69.837 2.43797 69.837H4.6816V74.3077C4.6816 76.8708 4.98075 78.7783 5.42948 78.7783C5.87821 78.7783 6.17736 76.8708 6.17736 74.3077V69.837H8.42099C9.69238 69.837 10.6646 69.539 10.6646 69.2409C10.6646 68.8833 8.42099 68.6448 5.42948 68.6448C2.43797 68.6448 0.194336 68.8833 0.194336 69.2409Z" fill="#F5888E"/>
<path d="M10.665 74.9634C10.665 77.9438 10.8894 78.7783 11.7869 78.7783C12.6095 78.7783 12.9087 78.063 12.9087 75.7383C12.9087 73.2347 13.133 72.6386 14.4044 72.4002C16.7976 71.9233 16.1245 71.1484 13.2826 71.1484H10.665V74.9634Z" fill="#F5888E"/>
<path d="M18.3677 71.5056C16.8719 72.2805 15.8997 75.0821 16.5728 76.6319C17.6198 78.7778 21.5835 79.5528 23.3037 78.0029C24.4255 76.8704 23.528 76.3339 21.8827 77.1088C20.3121 77.9433 18.1433 77.3472 18.1433 76.0954C18.1433 75.4398 18.966 75.2013 21.1348 75.2013C23.6028 75.2013 24.1263 75.0225 24.1263 74.0687C24.1263 71.8036 20.7609 70.3134 18.3677 71.5056ZM22.1818 73.115C22.481 73.7707 22.0323 74.0091 20.3869 74.0091C18.2181 74.0091 17.545 73.4727 18.6668 72.6381C19.5643 71.9228 21.7331 72.2209 22.1818 73.115Z" fill="#F5888E"/>
<path d="M26.3699 71.9229C25.1733 73.0555 25.996 73.9496 27.2674 72.9363C28.5388 71.9229 30.6329 72.0421 31.1564 73.1151C31.4555 73.7112 31.0816 74.0092 30.0345 74.0092C27.7161 74.0092 25.6221 75.1418 25.6221 76.334C25.6221 77.9434 27.1178 78.6587 30.3337 78.5991C33.1008 78.5395 33.1008 78.5395 33.1008 75.9167C33.1008 74.4861 32.7269 72.8171 32.353 72.1614C31.3807 70.7904 27.7161 70.6115 26.3699 71.9229ZM31.4555 75.9167C30.932 77.1685 28.7632 77.9434 27.7909 77.1685C27.3422 76.8108 27.1926 76.2148 27.417 75.8571C28.1649 74.963 31.8295 75.0226 31.4555 75.9167Z" fill="#F5888E"/>
<path d="M36.3162 71.4455C35.7927 71.5647 35.344 72.3396 35.344 73.1145C35.344 74.1875 35.9423 74.6643 37.9615 75.2008C39.3825 75.5585 40.5791 76.1546 40.5791 76.4526C40.5791 77.4063 38.4103 77.764 37.2137 76.9891C35.5683 75.8565 34.1474 76.5718 35.6431 77.764C38.1859 79.7311 42.5236 78.4793 41.9253 75.9757C41.7757 75.3796 40.6539 74.7239 39.2329 74.3663C37.9615 74.0683 36.8397 73.4722 36.8397 73.0549C36.8397 72.0416 39.2329 71.9819 40.4295 72.9357C41.7009 73.949 42.5236 73.0549 41.327 71.9223C40.4295 71.0282 38.1859 70.8494 36.3162 71.4455Z" fill="#F5888E"/>
<path d="M44.3193 74.2472C44.3193 77.8833 45.2168 78.7775 48.657 78.5986C50.9754 78.4794 51.0502 78.3602 51.125 75.6182C51.1998 74.0684 51.2746 72.5185 51.3494 72.1013C51.4242 71.7436 51.0502 71.3264 50.5267 71.2072C49.9284 71.0283 49.5545 71.9821 49.4049 74.128C49.1805 76.8104 48.9562 77.2873 47.6848 77.2873C46.4134 77.2873 46.189 76.8104 45.9647 74.128C45.6655 70.0746 44.3193 70.1342 44.3193 74.2472Z" fill="#F5888E"/>
<path d="M54.0416 74.4268C54.0416 76.1554 54.0416 77.7649 53.9668 78.0033C53.9668 78.2417 54.2659 78.5398 54.7147 78.659C55.2382 78.7782 55.5373 77.7052 55.5373 75.7978C55.5373 73.2346 55.7617 72.6385 57.0331 72.4001C59.2767 71.9232 58.828 71.0887 56.2852 71.1483C54.1164 71.2079 54.0416 71.2675 54.0416 74.4268Z" fill="#F5888E"/>
<path d="M60.473 71.9819C58.6033 73.4721 58.6781 76.8698 60.6226 78.0024C62.1931 79.0158 64.8855 78.9561 65.9325 78.0024C67.0543 76.8698 66.1568 76.3334 64.5115 77.1083C62.941 77.9428 60.7721 77.3467 60.7721 76.0949C60.7721 75.4392 61.5948 75.2008 63.7636 75.2008C66.2316 75.2008 66.7551 75.022 66.7551 74.0682C66.7551 72.578 64.8107 71.0282 63.0158 71.0282C62.2679 71.0282 61.0713 71.4454 60.473 71.9819ZM64.8107 73.1145C65.1098 73.7702 64.6611 74.0086 63.0158 74.0086C60.8469 74.0086 60.1738 73.4721 61.2956 72.6376C62.1931 71.9223 64.3619 72.2204 64.8107 73.1145Z" fill="#F5888E"/>
<path d="M68.999 71.9233C67.7276 73.175 68.625 74.546 71.2426 75.2613C72.4392 75.619 73.4863 76.2747 73.4863 76.7516C73.4863 77.7649 71.093 77.8245 69.8964 76.8708C68.625 75.8574 67.8024 76.7516 68.999 77.8841C70.1956 79.0763 73.0375 79.0167 74.6081 77.8245C76.2534 76.5131 75.7299 75.6786 72.4392 74.4268C70.9435 73.8307 69.8964 73.1154 70.1208 72.8174C70.7939 71.9829 73.3367 72.1021 73.6358 72.877C73.7854 73.2943 74.3837 73.4731 74.9072 73.3539C75.7299 73.1154 75.6551 72.8174 74.6829 72.0425C73.1123 70.7907 70.2704 70.7311 68.999 71.9233Z" fill="#F5888E"/>
</svg>
